<mxfile host="app.diagrams.net" agent="Mozilla/5.0 (Windows NT 10.0; Win64; x64) AppleWebKit/537.36 (KHTML, like Gecko) Chrome/138.0.0.0 Safari/537.36" version="28.0.6">
  <diagram name="Infraestructura Azure" id="Infra">
    <mxGraphModel dx="786" dy="417" grid="1" gridSize="10" guides="1" tooltips="1" connect="1" arrows="1" fold="1" page="1" pageScale="1" pageWidth="827" pageHeight="1169" math="0" shadow="0">
      <root>
        <mxCell id="0" />
        <mxCell id="1" parent="0" />
        <mxCell id="user" value="Usuario" style="shape=man;whiteSpace=wrap;html=1;" parent="1" vertex="1">
          <mxGeometry x="40" y="60" width="80" height="80" as="geometry" />
        </mxCell>
        <mxCell id="acr" value="Azure Container Registry (ACR)" style="shape=cloud;whiteSpace=wrap;html=1;" parent="1" vertex="1">
          <mxGeometry x="280" y="50" width="290" height="90" as="geometry" />
        </mxCell>
        <mxCell id="vm" value="VM Linux (Podman)" style="shape=mxgraph.azure.compute;whiteSpace=wrap;html=1;" parent="1" vertex="1">
          <mxGeometry x="120" y="200" width="140" height="60" as="geometry" />
        </mxCell>
        <mxCell id="aks" value="AKS Cluster" style="shape=mxgraph.azure.container_services.kubernetes_services;whiteSpace=wrap;html=1;" parent="1" vertex="1">
          <mxGeometry x="360" y="210" width="140" height="60" as="geometry" />
        </mxCell>
        <mxCell id="line1" style="endArrow=block" parent="1" source="user" target="acr" edge="1">
          <mxGeometry relative="1" as="geometry" />
        </mxCell>
        <mxCell id="line2" style="endArrow=block" parent="1" source="acr" target="vm" edge="1">
          <mxGeometry relative="1" as="geometry" />
        </mxCell>
        <mxCell id="line3" style="endArrow=block" parent="1" source="acr" target="aks" edge="1">
          <mxGeometry relative="1" as="geometry" />
        </mxCell>
      </root>
    </mxGraphModel>
  </diagram>
</mxfile>
